<?xml version="1.0" encoding="utf-8"?>
<svg xmlns="http://www.w3.org/2000/svg">
<symbol id="arrow-circled" viewBox="0 0 32 33">
    <path d="M16 .406c-2.901 0-5.59.726-8.064 2.176-2.41 1.43-4.33 3.35-5.76 5.76C.726 10.817 0 13.505 0 16.406c0 2.902.725 5.59 2.176 8.064 1.43 2.41 3.35 4.33 5.76 5.76 2.475 1.45 5.163 2.176 8.064 2.176s5.59-.725 8.064-2.176c2.41-1.43 4.33-3.35 5.76-5.76C31.274 21.996 32 19.308 32 16.406c0-2.133-.405-4.176-1.216-6.128-.81-1.952-1.968-3.68-3.472-5.184s-3.232-2.661-5.184-3.472C20.176.812 18.133.406 16 .406zm0 29.536c-2.453 0-4.725-.618-6.816-1.856-2.048-1.194-3.67-2.816-4.864-4.864-1.237-2.09-1.856-4.362-1.856-6.816 0-2.453.619-4.725 1.856-6.816 1.195-2.048 2.816-3.67 4.864-4.864C11.274 3.49 13.547 2.87 16 2.87c2.453 0 4.725.619 6.816 1.856 2.048 1.195 3.67 2.816 4.864 4.864 1.237 2.09 1.856 4.363 1.856 6.816 0 2.454-.619 4.726-1.856 6.816-1.195 2.048-2.816 3.67-4.864 4.864-2.09 1.238-4.363 1.856-6.816 1.856zm7.456-15.968L16 21.43l-7.456-7.456 1.696-1.728 5.664 5.664 5.664-5.664 1.888 1.728z"/>

</symbol>
<symbol id="arrow-down" viewBox="0 0 17 10">
    <path fill-rule="evenodd" d="M3.833 8.88L5.75 7 11.5 12.642 17.25 7.002 19.167 8.882 11.5 16.402z" transform="translate(-3 -7.043)"/>

</symbol>
<symbol id="arrow-left" viewBox="0 0 24 24"><path d="M15.41 7.41L14 6l-6 6 6 6 1.41-1.41L10.83 12z"/>
</symbol>
<symbol id="arrow-right" viewBox="0 0 24 24"><path d="M10 6L8.59 7.41 13.17 12l-4.58 4.59L10 18l6-6z"/>
</symbol>
<symbol id="calc" viewBox="0 0 38 51">
    <g fill="auto" fill-rule="evenodd">
        <path d="M0 50.072h37.08V0H0v50.072zm2-2h33.08V2H2v46.072z"/>
        <path d="M6.975 16.252h23.131V7.53H6.975v8.72zm-2.001 2h27.131V5.53H4.974v12.72zM7.057 30.743h8.721v-7.687H7.057v7.687zm-2.001 2h12.721V21.055H5.056v11.688zM21.467 30.743h8.721v-7.687h-8.721v7.687zm-2 2h12.721V21.055H19.467v11.688zM7.057 43.363h8.721v-7.687H7.057v7.687zm-2.001 2h12.721V33.675H5.056v11.688zM21.467 43.363h8.721v-7.687h-8.721v7.687zm-2 2h12.721V33.675H19.467v11.688z"/>
    </g>

</symbol>
<symbol id="card" viewBox="0 0 72 68">
    <defs>
        <path id="a" d="M0 .151h52.956v44.833H0z"/>
        <path id="c" d="M.315.806h63.113V58H.315z"/>
    </defs>
    <g fill="auto" fill-rule="evenodd">
        <g transform="translate(0 -.151)">
            <path fill="auto" d="M52.956 3.08l-.582-.708a6.084 6.084 0 0 0-8.564-.837L2.222 35.713a6.083 6.083 0 0 0-.838 8.564l.581.707L52.956 3.08z" mask="url(#b)"/>
        </g>
        <g transform="translate(8 9.849)">
            <path fill="auto" d="M35.718 33.814a2.396 2.396 0 0 1-.33 3.371l-2.481 2.038a2.394 2.394 0 0 1-3.37-.33l-.653-.795a2.394 2.394 0 0 1 .33-3.37l2.48-2.039a2.396 2.396 0 0 1 3.37.33l.654.795zm-7.268 5.973a2.395 2.395 0 0 1-.33 3.37l-9.892 8.13a2.394 2.394 0 0 1-3.37-.33l-.653-.795a2.395 2.395 0 0 1 .329-3.37l9.892-8.13a2.394 2.394 0 0 1 3.37.33l.654.795zM.315 42.71l10.739 13.068a6.084 6.084 0 0 0 8.564.838l41.589-34.178a6.085 6.085 0 0 0 .838-8.564L51.305.806.315 42.71z" mask="url(#d)"/>
        </g>
    </g>

</symbol>
<symbol viewBox="0 0 24 24" id="caret-arrow" xmlns="http://www.w3.org/2000/svg"><path d="M7 10l5 5 5-5z"/></symbol>
<symbol id="caret-triangle" viewBox="0 0 24 24"><path d="M7 10l5 5 5-5z"/>
</symbol>
<symbol id="chat" viewBox="0 0 63 59">
    <defs>
        <path id="a" d="M0 0h62.5v58.92H0z"/>
    </defs>
    <g fill="auto" fill-rule="evenodd">
        <path fill="auto" d="M9.709 44.129a5.542 5.542 0 0 1-.658.175 15.227 15.227 0 0 0 1.685-2.686c1.041-2.084 1.275-4.931 1.286-6.955l.007-1.223-.962-.758C7.154 29.608 5 25.46 5 21c0-8.822 8.523-16 19-16s19 7.178 19 16c0 8.823-8.523 16-19 16-.505 0-1.001-.035-1.496-.066l-.95-.063-.751.585c-2.005 1.563-7.098 5.34-11.094 6.672M56.5 52.502c-.863-1.727-1.014-4.355-1.022-5.852C59.782 43.265 62.5 38.412 62.5 33c0-8.392-6.508-15.442-15.407-17.704C44.245 6.48 34.975 0 24 0 10.767 0 0 9.42 0 21c0 5.54 2.53 10.863 6.985 14.787-.091 1.549-.347 2.848-.721 3.594-.967 1.934-1.857 2.629-2.507 3.137C3.1 43.032 2 43.889 2 45.5c0 .611.194 1.78 1.496 2.718 1.094.788 2.692 1.2 4.395 1.2 1.125 0 2.297-.18 3.399-.547 3.901-1.3 8.31-4.267 11.226-6.44 3.747 5.426 10.617 9.069 18.484 9.069.561 0 1.11-.037 1.66-.073 2.283 1.78 7.523 5.634 11.84 7.073 3 1 6 .03 6-1 0-1-2-1-4-5" mask="url(#b)"/>
    </g>

</symbol>
<symbol id="check-unfilled" viewBox="0 0 9 7">
    <path fill-rule="evenodd" d="M10.929 5L7.167 8.856 5.404 7.185 4.167 8.424 7.167 11.333 12.167 6.238z" transform="translate(-4 -5)"/>

</symbol>
<symbol id="check" viewBox="0 0 24 24">
    <path fill="auto" fill-rule="evenodd" stroke="auto" stroke-width="5" d="M8 17L16 17 16 1" transform="rotate(45 12 9)"/>

</symbol>
<symbol id="close" viewBox="0 0 24 24"><path d="M19 6.41L17.59 5 12 10.59 6.41 5 5 6.41 10.59 12 5 17.59 6.41 19 12 13.41 17.59 19 19 17.59 13.41 12z"/>
</symbol>
<symbol id="download" viewBox="0 0 14 15">
    <g id="03-Visual-|-v01" stroke="auto" stroke-width="1" fill-rule="evenodd">
        <g id="08-_-BMW-_-Precios-Cerrados-_-Desktop" transform="translate(-1115.000000, -850.000000)">
            <g id="Group-3" transform="translate(1115.000000, 850.238828)">
                <g id="Group-6">
                    <path d="M12,9 L14,9 L14,14 L0,14 L0,9 L2,9 L2,12 L12,12 L12,9 Z M10.271,4.852 L11.371,6.148 L7,9.857 L2.629,6.148 L3.729,4.852 L6,6.779 L6,-1.42108547e-14 L8,-1.42108547e-14 L8,6.779 L10.271,4.852 Z" id="ico_download"/>
                </g>
            </g>
        </g>
    </g>

</symbol>
<symbol id="envelope" viewBox="0 0 55 40">
    <path fill="auto" fill-rule="evenodd" d="M0 39.632h55V0H0v39.632zM5.562 3.235h43.876L27.5 19.811 5.562 3.235zm46.203 2.297v30.865H3.235V5.532L27.5 23.866 51.765 5.532z"/>

</symbol>
<symbol id="form-danger" viewBox="0 0 24 24"><path d="M12 2C6.48 2 2 6.48 2 12s4.48 10 10 10 10-4.48 10-10S17.52 2 12 2zm1 15h-2v-2h2v2zm0-4h-2V7h2v6z"/>
</symbol>
<symbol id="form-info" viewBox="0 0 24 24"><path d="M12 2C6.48 2 2 6.48 2 12s4.48 10 10 10 10-4.48 10-10S17.52 2 12 2zm1 15h-2v-6h2v6zm0-8h-2V7h2v2z"/>
</symbol>
<symbol id="form-pass" viewBox="0 0 16 16">
    <path fill="auto" fill-rule="nonzero" d="M7.714 11a3 3 0 1 1 0-6 3 3 0 0 1 0 6zm0-.857a2.143 2.143 0 1 0 0-4.286 2.143 2.143 0 0 0 0 4.286zm0 3c2.525 0 4.81-1.714 6.857-5.143-2.046-3.429-4.332-5.143-6.857-5.143C5.19 2.857 2.904 4.571.857 8c2.047 3.429 4.333 5.143 6.857 5.143zm0 .857C4.838 14 2.307 12.102.121 8.44a.857.857 0 0 1 0-.88C2.307 3.899 4.838 2 7.714 2c2.876 0 5.407 1.898 7.593 5.56a.857.857 0 0 1 0 .88C13.121 12.101 10.59 14 7.714 14z"/>

</symbol>
<symbol id="form-success" viewBox="0 0 24 24"><path d="M12 2C6.48 2 2 6.48 2 12s4.48 10 10 10 10-4.48 10-10S17.52 2 12 2zm-2 15l-5-5 1.41-1.41L10 14.17l7.59-7.59L19 8l-9 9z"/>
</symbol>
<symbol id="form-warning" viewBox="0 0 24 24"><path d="M1 21h22L12 2 1 21zm12-3h-2v-2h2v2zm0-4h-2v-4h2v4z"/>
</symbol>
<symbol id="info-mini" viewBox="0 0 24 24">
    <path fill-rule="evenodd" d="M12.175 19.91c-4.537 0-8.229-3.691-8.229-8.228s3.692-8.229 8.229-8.229c4.537 0 8.228 3.692 8.228 8.229 0 4.537-3.691 8.228-8.228 8.228m0-17.828c-5.302 0-9.6 4.298-9.6 9.6s4.298 9.6 9.6 9.6 9.6-4.298 9.6-9.6-4.298-9.6-9.6-9.6m2.286 12.571h-1.6V9.604c0-.379-.307-.686-.686-.686-.04 0-.077.005-.114.012-.038-.007-.076-.011-.115-.012h-1.371c-.245 0-.472.131-.594.343-.123.212-.123.474 0 .686.122.212.349.343.594.343h.914v4.363h-1.6c-.379 0-.686.307-.686.686 0 .379.307.686.686.686h4.572c.378 0 .685-.307.685-.686 0-.379-.307-.686-.685-.686m-2.286-6.296c.378 0 .686-.279.686-.624 0-.343-.308-.623-.686-.623-.379 0-.686.28-.686.623 0 .345.307.624.686.624"/>

</symbol>
<symbol id="info" viewBox="0 0 16 16">
    <g fill="auto" fill-rule="evenodd">
        <path fill="auto" stroke="auto" stroke-width="2" d="M8 1c-1.933 0-3.683.783-4.95 2.05C1.783 4.317 1 6.067 1 8c0 1.933.783 3.683 2.05 4.95C4.317 14.217 6.067 15 8 15c1.933 0 3.683-.783 4.95-2.05C14.217 11.683 15 9.933 15 8c0-1.933-.783-3.683-2.05-4.95C11.683 1.783 9.933 1 8 1z"/>
        <path fill="auto" d="M8.889 6.222v6.222H7.11V6.222H8.89zm0-2.666v1.777H7.11V3.556H8.89z"/>
    </g>

</symbol>
<symbol id="search" viewBox="0 0 20 21">
    <path fill="auto" fill-rule="evenodd" d="M14.583 13.55c2.559-2.902 2.695-7.322.135-10.374-1.516-1.807-3.74-2.843-6.1-2.843-1.866 0-3.682.662-5.112 1.862-3.362 2.821-3.802 7.85-.98 11.212 1.516 1.806 3.74 2.842 6.1 2.842 1.457 0 2.877-.416 4.114-1.165l4.939 5.885 1.839-1.542-4.935-5.878zm-2.39-1c-1 .84-2.266 1.3-3.567 1.3-1.65 0-3.203-.722-4.262-1.985-1.97-2.348-1.662-5.861.686-7.83 1-.839 2.266-1.302 3.569-1.302 1.65 0 3.203.724 4.261 1.986 1.968 2.348 1.66 5.861-.686 7.832z"/>

</symbol>
<symbol id="spinner" viewBox="0 0 300 300">
	<g width="300" height="300" viewBox="0 0 300 300" transform="translate(0 299) scale(0.1 -0.1) rotate(223.948 1500 1500)" preserveAspectRatio="xMidYMid meet">
		<path d="M1335 2963 c-249 -32 -475 -117 -680 -257 -108 -73 -279 -241 -356 -351 -165 -233 -264 -521 -271 -790 l-3 -90 35 -3 c19 -2 86 -1 148 3 l112 7 0 56 c0 75 22 209 50 301 69 232 223 452 423 602 155 117 386 209 565 224 124 11 112 -6 112 160 l0 145 -52 -1 c-29 -1 -66 -4 -83 -6z">
		</path>
		<path d="M2763 1523 l-83 -4 0 -63 c0 -35 -7 -102 -15 -149 -88 -503 -468 -885 -965 -971 -51 -9 -113 -16 -138 -16 l-44 0 7 -147 c4 -82 8 -149 9 -150 1 -1 49 3 107 8 613 53 1137 502 1289 1103 29 113 58 351 47 381 -7 16 -12 16 -214 8z">
		</path>
	</g>

</symbol>
<symbol id="twitter" viewBox="0 0 50 41"><title>Shape</title><path d="M45 10.092v1.262C45 25.23 34.687 41 15.625 41 9.687 41 4.375 39.423 0 36.27h2.5c4.688 0 9.375-1.578 12.813-4.416-4.376 0-8.126-3.154-9.688-7.254.625 0 1.25.315 1.875.315.938 0 1.875 0 2.813-.315-4.688-.946-8.438-5.046-8.438-10.092 1.563.63 3.125 1.26 4.688 1.26-2.813-1.89-4.375-5.045-4.375-8.83 0-1.892.624-3.784 1.25-5.046 5 6.308 12.5 10.408 21.25 10.723-.313-.63-.313-1.577-.313-2.207C24.375 4.73 29.063 0 34.688 0c2.812 0 5.624 1.262 7.5 3.154 2.187-.316 4.687-1.262 6.562-2.523-.625 2.53-2.5 4.42-4.375 5.68 1.875 0 3.75-.63 5.625-1.57-1.25 2.21-3.125 4.1-5 5.36z" fill-rule="evenodd"/>
</symbol>
<symbol id="user" viewBox="0 0 50 59">
    <defs>
        <path id="a" d="M.001.012h25.37v31.655H0z"/>
        <path id="c" d="M0 .042h49.97V27.25H0z"/>
    </defs>
    <g fill="auto" fill-rule="evenodd">
        <g transform="translate(12.287 .11)">
            <path fill="auto" d="M3.349 13.066c0-.037.012-.073.012-.098.401-8.722 6.594-9.659 9.246-9.659H12.753c3.284.073 8.868 1.411 9.245 9.66 0 .036 0 .072.013.097.012.085.863 8.357-3.005 12.713-1.533 1.727-3.577 2.579-6.265 2.603h-.122c-2.677-.024-4.732-.876-6.253-2.603-3.857-4.331-3.03-12.64-3.017-12.713m9.136 18.6h.389c3.565-.06 6.448-1.313 8.577-3.71 4.684-5.28 3.905-14.33 3.82-15.194-.304-6.485-3.37-9.587-5.9-11.035C17.485.645 15.283.061 12.826.012H12.619c-1.35 0-4.003.22-6.545 1.667C3.519 3.126.404 6.229.1 12.762c-.086.863-.864 9.914 3.82 15.194 2.116 2.397 5 3.65 8.564 3.71" mask="url(#b)"/>
        </g>
        <g transform="translate(0 31.618)">
            <path fill="auto" d="M49.967 15.17v-.036c0-.098-.012-.195-.012-.304-.073-2.41-.232-8.042-5.511-9.842-.037-.012-.085-.024-.122-.037C38.835 3.552 34.273.39 34.225.353a1.64 1.64 0 0 0-2.287.401 1.64 1.64 0 0 0 .401 2.287c.207.146 5.049 3.516 11.107 5.073 2.835 1.01 3.151 4.04 3.236 6.813 0 .11 0 .207.012.304.012 1.095-.06 2.786-.255 3.76-1.971 1.119-9.696 4.987-21.448 4.987-11.703 0-19.477-3.88-21.46-5-.194-.973-.28-2.664-.255-3.76 0-.096.012-.194.012-.303.085-2.774.401-5.803 3.236-6.813 6.058-1.557 10.9-4.939 11.107-5.073a1.64 1.64 0 0 0 .401-2.287 1.64 1.64 0 0 0-2.287-.401c-.048.036-4.586 3.2-10.097 4.598-.049.012-.085.025-.122.037C.246 6.788.088 12.42.016 14.818c0 .109 0 .206-.013.304v.036c-.012.633-.024 3.881.62 5.511.122.316.341.584.633.766.365.244 9.112 5.816 23.747 5.816s23.382-5.584 23.747-5.816c.28-.182.511-.45.633-.766.608-1.618.596-4.866.584-5.499" mask="url(#d)"/>
        </g>
    </g>

</symbol></svg>