<?xml version="1.0" encoding="utf-8"?>
<!-- Generator: Adobe Illustrator 28.3.0, SVG Export Plug-In . SVG Version: 6.00 Build 0)  -->
<svg version="1.1" id="Capa_1" xmlns="http://www.w3.org/2000/svg" xmlns:xlink="http://www.w3.org/1999/xlink" x="0px" y="0px"
	 viewBox="0 0 47.6 37" style="enable-background:new 0 0 47.6 37;" xml:space="preserve">
<style type="text/css">
	.st0{fill-rule:evenodd;clip-rule:evenodd;fill:#FF1B77;}
	.st1{filter:url(#Adobe_OpacityMaskFilter);}
	.st2{fill-rule:evenodd;clip-rule:evenodd;fill:#FFFFFF;}
	.st3{mask:url(#mask-2_00000044157814223721691360000008061826377450231200_);fill-rule:evenodd;clip-rule:evenodd;fill:#FF1B77;}
	.st4{filter:url(#Adobe_OpacityMaskFilter_00000163791463479687737670000001335933969753563789_);}
	.st5{mask:url(#mask-2_00000101806222991678655610000000731671693716655757_);fill-rule:evenodd;clip-rule:evenodd;fill:#FF1B77;}
	.st6{filter:url(#Adobe_OpacityMaskFilter_00000025408239075963876240000003626551770546888115_);}
	.st7{mask:url(#mask-6_00000149353680662197804130000015085336840337782962_);fill-rule:evenodd;clip-rule:evenodd;fill:#FF1B77;}
	.st8{filter:url(#Adobe_OpacityMaskFilter_00000031907641352241856730000018262138236015478715_);}
	.st9{mask:url(#mask-10_00000163776398086363199440000015018002507418645150_);fill-rule:evenodd;clip-rule:evenodd;fill:#FF1B77;}
	.st10{filter:url(#Adobe_OpacityMaskFilter_00000078726270711953491500000006909637971289131927_);}
	.st11{mask:url(#mask-12_00000152985544992611621630000003983903424105751966_);fill-rule:evenodd;clip-rule:evenodd;fill:#FF1B77;}
	.st12{filter:url(#Adobe_OpacityMaskFilter_00000108284148681987648420000006078378498071284914_);}
	.st13{mask:url(#mask-14_00000130639200795566204220000002052909723671812489_);fill-rule:evenodd;clip-rule:evenodd;fill:#FF1B77;}
	.st14{filter:url(#Adobe_OpacityMaskFilter_00000127722235670544987830000006719240977079638144_);}
	.st15{mask:url(#mask-2_00000132078164407636009840000001826361406700114866_);fill-rule:evenodd;clip-rule:evenodd;fill:#FF1B77;}
	.st16{filter:url(#Adobe_OpacityMaskFilter_00000065071766981298218620000012396312421374961826_);}
	.st17{mask:url(#mask-2_00000055695538404830598400000000074461464469370004_);fill-rule:evenodd;clip-rule:evenodd;fill:#FF1B77;}
	.st18{filter:url(#Adobe_OpacityMaskFilter_00000102533168438242179650000006828981094852337307_);}
	.st19{mask:url(#mask-6_00000072242713018303878510000013205076310110299538_);fill-rule:evenodd;clip-rule:evenodd;fill:#FF1B77;}
	.st20{filter:url(#Adobe_OpacityMaskFilter_00000119822324136012244740000011467123085434523551_);}
	.st21{mask:url(#mask-10_00000094607594912495889630000008097888279300536995_);fill-rule:evenodd;clip-rule:evenodd;fill:#FF1B77;}
	.st22{filter:url(#Adobe_OpacityMaskFilter_00000062173531825261857220000006782688407457151113_);}
	.st23{mask:url(#mask-12_00000163752407638472684000000013479894834426732692_);fill-rule:evenodd;clip-rule:evenodd;fill:#FF1B77;}
	.st24{filter:url(#Adobe_OpacityMaskFilter_00000129174063613911900550000000895745534125853108_);}
	.st25{mask:url(#mask-14_00000018923158662701731180000014257710785611088010_);fill-rule:evenodd;clip-rule:evenodd;fill:#FF1B77;}
	.st26{filter:url(#Adobe_OpacityMaskFilter_00000144336473226808537700000001821772584747176887_);}
	.st27{mask:url(#mask-2_00000063632316577350286560000003794926474596248723_);fill-rule:evenodd;clip-rule:evenodd;fill:#FF1B77;}
	.st28{filter:url(#Adobe_OpacityMaskFilter_00000018195838270865881680000010552695209942959270_);}
	.st29{mask:url(#mask-2_00000026869285570621152310000001864919007352617369_);fill-rule:evenodd;clip-rule:evenodd;fill:#FF1B77;}
	.st30{filter:url(#Adobe_OpacityMaskFilter_00000116928087446579625900000015554079922902084229_);}
	.st31{mask:url(#mask-4_00000178898831482641473750000013313571405559590025_);fill-rule:evenodd;clip-rule:evenodd;fill:#FF1B77;}
	.st32{filter:url(#Adobe_OpacityMaskFilter_00000011023978249558536650000013945085891349666704_);}
	.st33{mask:url(#mask-6_00000031914026751662654790000009137255094446891665_);fill-rule:evenodd;clip-rule:evenodd;fill:#FF1B77;}
	.st34{filter:url(#Adobe_OpacityMaskFilter_00000159437240656817931700000008099358557076000155_);}
	.st35{mask:url(#mask-8_00000127733696916519049940000013761485419552042925_);fill-rule:evenodd;clip-rule:evenodd;fill:#FF1B77;}
	.st36{filter:url(#Adobe_OpacityMaskFilter_00000136389802949792322670000018089018875229368708_);}
	.st37{mask:url(#mask-10_00000162315103143104496310000010843440350599212676_);fill-rule:evenodd;clip-rule:evenodd;fill:#FF1B77;}
	.st38{filter:url(#Adobe_OpacityMaskFilter_00000117635861881243702530000003606863615586161069_);}
	.st39{mask:url(#mask-12_00000108286430992713335600000000769693794072542885_);fill-rule:evenodd;clip-rule:evenodd;fill:#FF1B77;}
	.st40{filter:url(#Adobe_OpacityMaskFilter_00000076594937757277462040000018201245214114926760_);}
	.st41{mask:url(#mask-14_00000065038462724604740940000012180886067733822345_);fill-rule:evenodd;clip-rule:evenodd;fill:#FF1B77;}
	.st42{filter:url(#Adobe_OpacityMaskFilter_00000070827556491627023280000006884155388796672940_);}
	.st43{mask:url(#mask-2_00000167363621098636905880000013864321349321062560_);fill-rule:evenodd;clip-rule:evenodd;fill:#FF1B77;}
	.st44{filter:url(#Adobe_OpacityMaskFilter_00000031201845272769256160000002905137298996906937_);}
	.st45{mask:url(#mask-12_00000021814825510793736840000001082953559215182777_);fill-rule:evenodd;clip-rule:evenodd;fill:#FF1B77;}
	.st46{filter:url(#Adobe_OpacityMaskFilter_00000028313551366388869650000010397756108501330060_);}
	.st47{mask:url(#mask-2_00000055693249841374667040000015449592535116906653_);fill-rule:evenodd;clip-rule:evenodd;fill:#FF1B77;}
	.st48{filter:url(#Adobe_OpacityMaskFilter_00000133504535228863528270000010872467167374608568_);}
	.st49{mask:url(#mask-12_00000065045520647534264280000013358805225889115521_);fill-rule:evenodd;clip-rule:evenodd;fill:#FF1B77;}
</style>
<path id="Fill-1_00000024693383736215315660000016145900474172761530_" class="st0" d="M118.7-504.7c-0.3,0-0.5-0.3-0.5-0.5
	c0-0.1,0-0.2,0.1-0.3c0.1-0.1,0.2-0.2,0.4-0.2c0.2,0,0.3,0.1,0.4,0.2c0.1,0.1,0.1,0.2,0.1,0.3C119.2-505,119.1-504.7,118.7-504.7"/>
<defs>
	<filter id="Adobe_OpacityMaskFilter" filterUnits="userSpaceOnUse" x="107.1" y="-515.7" width="0" height="792.6">
		<feColorMatrix  type="matrix" values="1 0 0 0 0  0 1 0 0 0  0 0 1 0 0  0 0 0 1 0"/>
	</filter>
</defs>
<mask maskUnits="userSpaceOnUse" x="107.1" y="-515.7" width="0" height="792.6" id="mask-2_00000044157814223721691360000008061826377450231200_">
	<g class="st1">
		<path id="path-1_00000001637719717510961690000000346648275059570088_" class="st2" d="M118.4-505.6c-0.1,0.1-0.1,0.2-0.1,0.3l0,0
			c0,0.2,0.2,0.5,0.5,0.5l0,0c0.3,0,0.5-0.2,0.5-0.5l0,0c0-0.1,0-0.2-0.1-0.3l0,0c-0.1-0.1-0.2-0.2-0.4-0.2l0,0
			C118.6-505.7,118.5-505.7,118.4-505.6L118.4-505.6z"/>
	</g>
</mask>
<line id="Fill-3_00000041999716586796887770000012760174592402203052_" class="st3" x1="107.1" y1="-515.7" x2="107.1" y2="276.8"/>
<defs>
	
		<filter id="Adobe_OpacityMaskFilter_00000097460056970412984250000000017479951183586962_" filterUnits="userSpaceOnUse" x="117.3" y="-506.7" width="2.9" height="2.9">
		<feColorMatrix  type="matrix" values="1 0 0 0 0  0 1 0 0 0  0 0 1 0 0  0 0 0 1 0"/>
	</filter>
</defs>
<mask maskUnits="userSpaceOnUse" x="117.3" y="-506.7" width="2.9" height="2.9" id="mask-2_00000101806222991678655610000000731671693716655757_">
	<g style="filter:url(#Adobe_OpacityMaskFilter_00000097460056970412984250000000017479951183586962_);">
		<path id="path-1_00000048475328790879183850000018068339417751286674_" class="st2" d="M118.4-505.6c-0.1,0.1-0.1,0.2-0.1,0.3l0,0
			c0,0.2,0.2,0.5,0.5,0.5l0,0c0.3,0,0.5-0.2,0.5-0.5l0,0c0-0.1,0-0.2-0.1-0.3l0,0c-0.1-0.1-0.2-0.2-0.4-0.2l0,0
			C118.6-505.7,118.5-505.7,118.4-505.6L118.4-505.6z"/>
	</g>
</mask>
<polygon id="Fill-5_00000155105142417853355390000017125982957596974247_" class="st5" points="117.3,-503.8 120.2,-503.8 
	120.2,-506.7 117.3,-506.7 "/>
<path id="Fill-7_00000152986075014741247490000009313659457667338143_" class="st0" d="M120.7-502.7c0,0-0.1,0-0.1,0
	c-0.3-0.2-0.4-0.7-0.3-1.2c0.1-0.5,0.3-0.9,0.6-0.7c0.3,0.2,0.4,0.7,0.3,1.2C121.1-503.1,121-502.7,120.7-502.7"/>
<g id="Group-14_00000109751562254846407450000017629105572094208693_" transform="translate(5.000000, 10.000000)">
	<g id="Clip-13_00000031896668840089064910000011100410910677806519_">
	</g>
	<defs>
		
			<filter id="Adobe_OpacityMaskFilter_00000016770651062927236530000001636196147975843989_" filterUnits="userSpaceOnUse" x="113.7" y="-516" width="5.1" height="4.8">
			<feColorMatrix  type="matrix" values="1 0 0 0 0  0 1 0 0 0  0 0 1 0 0  0 0 0 1 0"/>
		</filter>
	</defs>
	
		<mask maskUnits="userSpaceOnUse" x="113.7" y="-516" width="5.1" height="4.8" id="mask-6_00000149353680662197804130000015085336840337782962_">
		<g style="filter:url(#Adobe_OpacityMaskFilter_00000016770651062927236530000001636196147975843989_);">
			<path id="path-5_00000065760731223901213860000017667855011092987778_" class="st2" d="M115.4-513.9c-0.1,0.4,0,0.9,0.5,1.1l0,0
				c0.1,0,0.1,0,0.2,0l0,0c0.4,0,0.7-0.3,0.9-0.7l0,0c0.1-0.4,0-0.9-0.5-1.1l0,0c-0.1,0-0.1,0-0.2,0l0,0
				C115.9-514.5,115.6-514.2,115.4-513.9L115.4-513.9z"/>
		</g>
	</mask>
	<polygon id="Fill-12_00000081642471595923430990000015416447751584429466_" class="st7" points="113.7,-511.3 118.7,-511.3 
		118.7,-516 113.7,-516 	"/>
</g>
<path id="Fill-15_00000079466281309625359400000007284337231966131841_" class="st0" d="M131.3-500.7c-0.9,0-1.7-0.7-2-1.7
	c-0.1-0.5,0.1-0.8,0.4-0.9c0.3-0.1,0.8,0,0.9,0.5c0.1,0.4,0.5,0.6,0.8,0.5c0.2-0.1,0.4-0.3,0.3-0.6c0-0.5,0.3-0.7,0.6-0.8
	c0.4,0,0.8,0.2,0.8,0.7c0.1,1.1-0.7,2.1-1.7,2.2C131.4-500.7,131.4-500.7,131.3-500.7"/>
<g id="Group-22_00000127014510229973111720000006781639823427458714_" transform="translate(13.000000, 11.000000)">
	<g id="Clip-21_00000005962917396583147030000001376269980064892853_">
	</g>
	<defs>
		
			<filter id="Adobe_OpacityMaskFilter_00000072282589186820013210000001939585887478134671_" filterUnits="userSpaceOnUse" x="113.7" y="-516.1" width="8.1" height="5.9">
			<feColorMatrix  type="matrix" values="1 0 0 0 0  0 1 0 0 0  0 0 1 0 0  0 0 0 1 0"/>
		</filter>
	</defs>
	
		<mask maskUnits="userSpaceOnUse" x="113.7" y="-516.1" width="8.1" height="5.9" id="mask-10_00000163776398086363199440000015018002507418645150_">
		<g style="filter:url(#Adobe_OpacityMaskFilter_00000072282589186820013210000001939585887478134671_);">
			<path id="path-9_00000029740171147674053560000007054949179057756051_" class="st2" d="M119.1-514.5c-0.4,0-0.7,0.3-0.7,0.7l0,0
				c0,0.3-0.1,0.5-0.4,0.6l0,0c-0.3,0.1-0.8-0.1-0.9-0.5l0,0c-0.2-0.5-0.7-0.6-1.1-0.5l0,0c-0.4,0.1-0.7,0.4-0.5,0.9l0,0
				c0.4,1,1.3,1.6,2.4,1.6l0,0c0.1,0,0.2,0,0.2,0l0,0c1.2-0.1,2.1-1.1,2-2.1l0,0C120-514.3,119.6-514.5,119.1-514.5L119.1-514.5
				C119.1-514.5,119.1-514.5,119.1-514.5L119.1-514.5z"/>
		</g>
	</mask>
	<polygon id="Fill-20_00000070098018070308390970000005372244602244165002_" class="st9" points="113.7,-510.2 121.8,-510.2 
		121.8,-516.1 113.7,-516.1 	"/>
</g>
<path id="Fill-23_00000023997837584393675790000017719437247859306147_" class="st0" d="M146.1-501.3c-0.1-0.4-0.6-0.5-0.9-0.3
	c-2.1,1.1-3.9,1.8-6.3,2c-0.8,0.1-0.7,1.3,0.1,1.2c2.3-0.3,4.1-0.9,6.1-1.8c0.1,0.7-0.1,1.4-0.8,1.8c-0.2,0.1-0.5,0.2-0.7,0.3
	c-0.4,0.1-1.6,0.1-1.4,0.7c0.2,0.7,0.3,1.5,0.1,2.2c-0.1,0.8-0.5,1.2-1.2,0.8c-0.3-0.1-0.6-0.3-0.9-0.5c-0.4-0.3-0.9,0.2-0.9,0.6
	c0,1.4-1.3,2.9-2.8,2c-0.9-0.6-2.1-1.9-1.9-3c0.1-0.8-1.1-1-1.2-0.2c-0.2,1.9,1.5,4.1,3.3,4.6c1.8,0.6,3.3-0.9,3.7-2.5
	c1,0.5,2.1,0.6,2.8-0.6c0.5-0.8,0.5-1.9,0.4-2.9c0.5-0.1,1-0.3,1.3-0.4C146.3-498.1,146.4-499.8,146.1-501.3"/>
<defs>
	
		<filter id="Adobe_OpacityMaskFilter_00000002380591706722673700000009916033849894050493_" filterUnits="userSpaceOnUse" x="101.1" y="-521" width="0" height="1245.5">
		<feColorMatrix  type="matrix" values="1 0 0 0 0  0 1 0 0 0  0 0 1 0 0  0 0 0 1 0"/>
	</filter>
</defs>
<mask maskUnits="userSpaceOnUse" x="101.1" y="-521" width="0" height="1245.5" id="mask-12_00000152985544992611621630000003983903424105751966_">
	<g style="filter:url(#Adobe_OpacityMaskFilter_00000002380591706722673700000009916033849894050493_);">
		<path id="path-11_00000139258182635120119790000001099365360667764644_" class="st2" d="M145.1-501.6c-2.1,1.1-3.9,1.8-6.3,2l0,0
			c-0.8,0.1-0.7,1.3,0.1,1.2l0,0c2.3-0.3,4.1-0.9,6.1-1.8l0,0c0.1,0.7-0.1,1.4-0.8,1.8l0,0c-0.2,0.1-0.5,0.2-0.7,0.3l0,0
			c-0.4,0.1-1.5,0.1-1.4,0.7l0,0c0.2,0.7,0.3,1.5,0.1,2.2l0,0c-0.1,0.7-0.4,1.1-1.2,0.8l0,0c-0.3-0.1-0.6-0.3-0.9-0.5l0,0
			c-0.4-0.3-0.9,0.2-0.9,0.6l0,0c0,1.4-1.3,2.9-2.7,2l0,0c-0.9-0.6-2-1.9-1.9-3l0,0c0.1-0.8-1.1-1-1.2-0.2l0,0
			c-0.2,1.8,1.5,4.1,3.3,4.6l0,0c1.8,0.6,3.3-0.9,3.7-2.5l0,0c1,0.5,2.1,0.6,2.8-0.5l0,0c0.5-0.8,0.5-1.9,0.4-2.9l0,0
			c0.5-0.1,1-0.3,1.3-0.4l0,0c1.5-0.8,1.7-2.5,1.3-4l0,0c-0.1-0.3-0.3-0.4-0.6-0.4l0,0C145.4-501.7,145.2-501.6,145.1-501.6
			L145.1-501.6z"/>
	</g>
</mask>
<line id="Fill-25_00000138537923222458275150000001768418063351378093_" class="st11" x1="101.1" y1="-521" x2="101.1" y2="724.4"/>
<g id="Group-30_00000152964291840110770630000016607239245196263092_" transform="translate(18.000000, 13.000000)">
	<g id="Clip-29_00000139282676306000292300000011172662197355649953_">
	</g>
	<defs>
		
			<filter id="Adobe_OpacityMaskFilter_00000168082255380605648320000013193509073590580613_" filterUnits="userSpaceOnUse" x="113.8" y="-516.2" width="16" height="13.9">
			<feColorMatrix  type="matrix" values="1 0 0 0 0  0 1 0 0 0  0 0 1 0 0  0 0 0 1 0"/>
		</filter>
	</defs>
	
		<mask maskUnits="userSpaceOnUse" x="113.8" y="-516.2" width="16" height="13.9" id="mask-14_00000130639200795566204220000002052909723671812489_">
		<g style="filter:url(#Adobe_OpacityMaskFilter_00000168082255380605648320000013193509073590580613_);">
			<path id="path-13_00000147197844372896448520000003209284217941647505_" class="st2" d="M127.1-514.6c-2.1,1.1-3.9,1.8-6.3,2l0,0
				c-0.8,0.1-0.7,1.3,0.1,1.2l0,0c2.3-0.3,4.1-0.9,6.1-1.8l0,0c0.1,0.7-0.1,1.4-0.8,1.8l0,0c-0.2,0.1-0.5,0.2-0.7,0.3l0,0
				c-0.4,0.1-1.5,0.1-1.4,0.7l0,0c0.2,0.7,0.3,1.5,0.1,2.2l0,0c-0.1,0.7-0.4,1.1-1.2,0.8l0,0c-0.3-0.1-0.6-0.3-0.9-0.5l0,0
				c-0.4-0.3-0.9,0.2-0.9,0.6l0,0c0,1.4-1.3,2.9-2.7,2l0,0c-0.9-0.6-2-1.9-1.9-3l0,0c0.1-0.8-1.1-1-1.2-0.2l0,0
				c-0.2,1.8,1.5,4.1,3.3,4.6l0,0c1.8,0.6,3.3-0.9,3.7-2.5l0,0c1,0.5,2.1,0.6,2.8-0.5l0,0c0.5-0.8,0.5-1.9,0.4-2.9l0,0
				c0.5-0.1,1-0.3,1.3-0.4l0,0c1.5-0.8,1.7-2.5,1.3-4l0,0c-0.1-0.3-0.3-0.4-0.6-0.4l0,0C127.4-514.7,127.2-514.6,127.1-514.6
				L127.1-514.6z"/>
		</g>
	</mask>
	<polygon id="Fill-28_00000099645740846315124870000003561824419191824540_" class="st13" points="113.8,-502.3 129.8,-502.3 
		129.8,-516.2 113.8,-516.2 	"/>
</g>
<path id="Fill-31_00000158008114169043997860000016856076464324463267_" class="st0" d="M154.5-502.3c0.3,0.4,0.2,0.6,0.2,0.9
	c-0.5-0.1-1.1-0.4-1.1-0.9C153.5-502.8,154-502.9,154.5-502.3 M148.2-492.1c0,0.1,0,0.1-0.1,0.2c0,0.1-0.1,0.3-0.2,0.4
	c0,0.1,0,0.1-0.1,0.2c-0.1,0.2-0.1,0.3-0.2,0.5c0,0,0,0,0,0.1c-0.1,0.2-0.2,0.4-0.3,0.5c0,0-0.1,0.1-0.1,0.1
	c-0.1,0.1-0.1,0.3-0.2,0.4c0,0.1-0.1,0.1-0.1,0.2c-0.1,0.1-0.2,0.3-0.3,0.4c0,0,0,0.1-0.1,0.1c-0.1,0.2-0.2,0.3-0.3,0.5
	c0,0-0.1,0.1-0.1,0.1c-0.1,0.1-0.2,0.2-0.3,0.3c0,0-0.1,0.1-0.1,0.1c-0.1,0.1-0.2,0.2-0.3,0.3c0,0-0.1,0.1-0.1,0.1
	c-0.1,0.1-0.3,0.3-0.4,0.4c0,0-0.1,0.1-0.1,0.1c-0.1,0.1-0.2,0.2-0.3,0.3c0,0-0.1,0.1-0.1,0.1c-0.1,0.1-0.2,0.2-0.4,0.3
	c0,0,0,0-0.1,0.1l-0.1,0.1c-0.1,0.2-0.2,0.4,0.1,0.8c0.1,0.1,0.2,0.3,0.3,0.4c0.8,1,1.3,1.5,2.5,1.8c0,0-0.6,0-0.9,0.6
	c-0.3,0.5-0.3,0.9-0.3,0.9c-1.5-0.4-2.4-1.1-3.7-2.2c-0.4-0.3-0.7-0.6-1-1c-0.7-0.7-1.2-1.6-1.5-2.4c-0.3-0.7-1.5-0.4-1.2,0.3
	c0.3,0.8,0.7,1.6,1.3,2.4c-2.3,0.3-4.6,0-6.8-0.5c0.1-0.6,0.2-1.1,0.2-1.7c0.1-0.8-1.2-0.8-1.3,0c0,0.5-0.1,1-0.2,1.4
	c-0.1,0.4-0.2,0.8-0.3,1.2c-0.4,1.4-0.7,2.3-1.2,3.7c-0.4-0.3-1.8-0.7-2.2-0.5l1.1-3.9c0.1-0.4,0.2-0.8,0.2-1.2
	c0.1-0.5,0.2-0.9,0.2-1.4c0.1-0.8-1.2-0.8-1.3,0c0,0.3-0.1,0.6-0.1,1c-0.9-0.4-1.9-0.9-2.7-1.4c-2.6-1.7-4-4.2-4.6-7.2
	c0.8,0.5,1.6,0.9,2.4,1.1c2.6,0.8,5.9-0.3,7.9-2c0.6-0.5-0.3-1.4-0.9-0.9c-1.6,1.4-4.2,2.3-6.2,1.8c-2.2-0.5-4.8-2.3-5.1-4.6
	c3.7,1,8.7-0.7,6.9-5.1c0,0-0.4-0.7-0.2-0.5c0,0,0.1-0.1,0.1-0.1c0.7-0.8,1.7-1.4,2.7-1.9c0.1-0.1,0.3-0.1,0.4-0.2
	c0.9-0.4,1.8-0.6,2.7-0.8c-0.1,0.3-0.2,0.6-0.2,0.9c-0.1,0.8,1.2,0.8,1.3,0c0-0.3,0.2-0.7,0.5-1.1c0.3-0.5,0.6-1,0.9-1.3
	c0,0,0,0,0,0c1.1-1.4,2.8-3.5,3.7-3.2c1.1,0.4,1.1,2.2,1.2,3.6c0,0.4,0.1,0.9,0.1,1.3c0,1.3,0.1,1.6-0.3,2.9c-0.2,0.8,1,1.1,1.2,0.3
	c0.3-1.1,0.3-1.5,0.3-2.9c1.1,0.3,2.2,0.8,3.2,1.3c2.5,1.4,4.5,3.4,5.3,6.1c0.7,2.5,0.7,5.2-0.1,7.7
	C148.3-492.5,148.3-492.3,148.2-492.1 M122.8-483.6c0.8-1.3,1.2-2.2,1.6-3.6c0.5,0.3,1,0.7,1.6,1c-0.4,1.2-0.7,2.3-1.4,3.4
	C124.3-483.6,123.8-483.8,122.8-483.6 M124.5-504.4c2.3,5.9-11.3,4.2-7.4-1.3C118.8-508.2,123.4-506.6,124.5-504.4 M124.7-511.6
	c0.4,0.3,0.8,0.8,1.1,1.1c0.6,0.7,1.3,1.4,1.7,2.3c-1,0.5-2.7,2-2.7,2c-0.5-0.5-1.1-0.9-1.8-1.2c0.1-1,0.6-1.9,1-2.8
	C124.1-510.6,124.4-511.2,124.7-511.6 M157.7-505.1c0.5,1.1,0.5,2.3-0.5,3.1c-0.3,0.2-0.8,0.5-1.3,0.6c0-0.6-0.2-1.2-0.6-1.7
	c-0.6-0.6-1.8-1.1-2.5-0.5c-0.8,0.5-0.5,1.6,0,2.3c0.4,0.5,1,0.9,1.6,1.1c-0.2,0.2-0.4,0.5-0.6,0.7c-1,0.9-2.5,0.9-3.7,0.4
	c-0.6-3-2.2-5.7-4.9-7.6c-1.5-1.1-3.3-1.9-5.1-2.4c-0.1-1.9-0.1-3.3-1.2-5.1c-0.4-0.7-1.7-0.6-2.1-0.3c-1.9,1.2-2.6,2.1-3.9,3.9
	c-0.2,0.3-0.4,0.5-0.6,0.8c-1.2,0.2-2.5,0.5-3.6,0.9c-0.6-1.1-1.4-2.1-2.3-3c-0.5-0.4-1.4-1.5-2.1-1.1c-0.6,0.4-1,1.6-1.3,2.2
	c-0.4,0.9-0.9,1.9-1.1,2.8c-2.8-0.7-6.1,0.2-6.5,3.5c-0.2,2,0.8,3.3,2.3,4.1c-0.1,1.6,0.7,2.9,1.7,3.9c0.4,3.2,1.5,6.2,4,8.3
	c-0.4,1.8-1.6,3.6-2.6,5.2c-0.3,0.4,0.1,0.9,0.5,0.9c1.1,0.1,2.2,0.3,3.4,0.4c0.2,0,0.4-0.1,0.5-0.3c0.8-1.2,1.5-2.5,1.9-3.9
	c0.2,0.1,0.4,0.2,0.6,0.3c-0.4,1.8-0.9,3.5-1.5,5.2c-0.1,0.3,0.1,0.7,0.4,0.8c1.1,0.2,2.2,0.4,3.4,0.7c0.4,0.1,0.6-0.1,0.8-0.4
	c0.6-1.5,1.2-3.2,1.7-4.8c2.7,0.6,5.4,0.9,8.1,0.4c1.7,1.6,3.9,2.8,5.9,3.3c0.3,0.1,0.6,0,0.7-0.3c0.6-0.9,1.2-1.8,1.8-2.7
	c0.3-0.4-0.1-0.9-0.5-0.9c-1.3-0.1-2.4-0.6-3.2-1.6c1.9-1.5,3.3-3.7,4.1-6.1c0.6-1.9,0.9-4,0.7-6c2.1,0.6,4.5-0.1,5.4-2.2
	c0,0,0.1,0,0.1,0c2.8-0.2,4.2-2.9,3.1-5.3C158.6-506.1,157.4-505.8,157.7-505.1"/>
<path id="Fill-1_00000007398540381796854480000006014827346970344847_" class="st0" d="M118.7-504.7c-0.3,0-0.5-0.3-0.5-0.5
	c0-0.1,0-0.2,0.1-0.3c0.1-0.1,0.2-0.2,0.4-0.2c0.2,0,0.3,0.1,0.4,0.2c0.1,0.1,0.1,0.2,0.1,0.3C119.2-505,119.1-504.7,118.7-504.7"/>
<defs>
	
		<filter id="Adobe_OpacityMaskFilter_00000078767349559998559650000002275904189188100736_" filterUnits="userSpaceOnUse" x="107.1" y="-515.7" width="0" height="792.6">
		<feColorMatrix  type="matrix" values="1 0 0 0 0  0 1 0 0 0  0 0 1 0 0  0 0 0 1 0"/>
	</filter>
</defs>
<mask maskUnits="userSpaceOnUse" x="107.1" y="-515.7" width="0" height="792.6" id="mask-2_00000132078164407636009840000001826361406700114866_">
	<g style="filter:url(#Adobe_OpacityMaskFilter_00000078767349559998559650000002275904189188100736_);">
		<path id="path-1_00000031886300143972919890000001037575951451219624_" class="st2" d="M118.4-505.6c-0.1,0.1-0.1,0.2-0.1,0.3l0,0
			c0,0.2,0.2,0.5,0.5,0.5l0,0c0.3,0,0.5-0.2,0.5-0.5l0,0c0-0.1,0-0.2-0.1-0.3l0,0c-0.1-0.1-0.2-0.2-0.4-0.2l0,0
			C118.6-505.7,118.5-505.7,118.4-505.6L118.4-505.6z"/>
	</g>
</mask>
<line id="Fill-3_00000132773512508668428030000003991942772639433136_" class="st15" x1="107.1" y1="-515.7" x2="107.1" y2="276.8"/>
<defs>
	
		<filter id="Adobe_OpacityMaskFilter_00000149340062933942003380000013760602217839333765_" filterUnits="userSpaceOnUse" x="117.3" y="-506.7" width="2.9" height="2.9">
		<feColorMatrix  type="matrix" values="1 0 0 0 0  0 1 0 0 0  0 0 1 0 0  0 0 0 1 0"/>
	</filter>
</defs>
<mask maskUnits="userSpaceOnUse" x="117.3" y="-506.7" width="2.9" height="2.9" id="mask-2_00000055695538404830598400000000074461464469370004_">
	<g style="filter:url(#Adobe_OpacityMaskFilter_00000149340062933942003380000013760602217839333765_);">
		<path id="path-1_00000029747451725211001910000010817674329989672099_" class="st2" d="M118.4-505.6c-0.1,0.1-0.1,0.2-0.1,0.3l0,0
			c0,0.2,0.2,0.5,0.5,0.5l0,0c0.3,0,0.5-0.2,0.5-0.5l0,0c0-0.1,0-0.2-0.1-0.3l0,0c-0.1-0.1-0.2-0.2-0.4-0.2l0,0
			C118.6-505.7,118.5-505.7,118.4-505.6L118.4-505.6z"/>
	</g>
</mask>
<polygon id="Fill-5_00000031186041257363619170000017819472983783366065_" class="st17" points="117.3,-503.8 120.2,-503.8 
	120.2,-506.7 117.3,-506.7 "/>
<path id="Fill-7_00000172427753612312579560000005434270399180730010_" class="st0" d="M120.7-502.7c0,0-0.1,0-0.1,0
	c-0.3-0.2-0.4-0.7-0.3-1.2c0.1-0.5,0.3-0.9,0.6-0.7c0.3,0.2,0.4,0.7,0.3,1.2C121.1-503.1,121-502.7,120.7-502.7"/>
<g id="Group-14_00000170269081240307816700000007997583538620279438_" transform="translate(5.000000, 10.000000)">
	<g id="Clip-13_00000004525581614535229320000006419342087268072613_">
	</g>
	<defs>
		
			<filter id="Adobe_OpacityMaskFilter_00000083084830666116853860000012896252207441718939_" filterUnits="userSpaceOnUse" x="113.7" y="-516" width="5.1" height="4.8">
			<feColorMatrix  type="matrix" values="1 0 0 0 0  0 1 0 0 0  0 0 1 0 0  0 0 0 1 0"/>
		</filter>
	</defs>
	
		<mask maskUnits="userSpaceOnUse" x="113.7" y="-516" width="5.1" height="4.8" id="mask-6_00000072242713018303878510000013205076310110299538_">
		<g style="filter:url(#Adobe_OpacityMaskFilter_00000083084830666116853860000012896252207441718939_);">
			<path id="path-5_00000047032348129785650860000005751589217820243879_" class="st2" d="M115.4-513.9c-0.1,0.4,0,0.9,0.5,1.1l0,0
				c0.1,0,0.1,0,0.2,0l0,0c0.4,0,0.7-0.3,0.9-0.7l0,0c0.1-0.4,0-0.9-0.5-1.1l0,0c-0.1,0-0.1,0-0.2,0l0,0
				C115.9-514.5,115.6-514.2,115.4-513.9L115.4-513.9z"/>
		</g>
	</mask>
	<polygon id="Fill-12_00000042734642989966408300000017758371876171050138_" class="st19" points="113.7,-511.3 118.7,-511.3 
		118.7,-516 113.7,-516 	"/>
</g>
<path id="Fill-15_00000083056949995570931170000009091233924160620981_" class="st0" d="M131.3-500.7c-0.9,0-1.7-0.7-2-1.7
	c-0.1-0.5,0.1-0.8,0.4-0.9c0.3-0.1,0.8,0,0.9,0.5c0.1,0.4,0.5,0.6,0.8,0.5c0.2-0.1,0.4-0.3,0.3-0.6c0-0.5,0.3-0.7,0.6-0.8
	c0.4,0,0.8,0.2,0.8,0.7c0.1,1.1-0.7,2.1-1.7,2.2C131.4-500.7,131.4-500.7,131.3-500.7"/>
<g id="Group-22_00000072978649325233678730000009233795829658399924_" transform="translate(13.000000, 11.000000)">
	<g id="Clip-21_00000070090761640419679000000016524304869029702587_">
	</g>
	<defs>
		
			<filter id="Adobe_OpacityMaskFilter_00000168081673830655729150000018382407050441138870_" filterUnits="userSpaceOnUse" x="113.7" y="-516.1" width="8.1" height="5.9">
			<feColorMatrix  type="matrix" values="1 0 0 0 0  0 1 0 0 0  0 0 1 0 0  0 0 0 1 0"/>
		</filter>
	</defs>
	
		<mask maskUnits="userSpaceOnUse" x="113.7" y="-516.1" width="8.1" height="5.9" id="mask-10_00000094607594912495889630000008097888279300536995_">
		<g style="filter:url(#Adobe_OpacityMaskFilter_00000168081673830655729150000018382407050441138870_);">
			<path id="path-9_00000132064713532512487550000012720879519448779175_" class="st2" d="M119.1-514.5c-0.4,0-0.7,0.3-0.7,0.7l0,0
				c0,0.3-0.1,0.5-0.4,0.6l0,0c-0.3,0.1-0.8-0.1-0.9-0.5l0,0c-0.2-0.5-0.7-0.6-1.1-0.5l0,0c-0.4,0.1-0.7,0.4-0.5,0.9l0,0
				c0.4,1,1.3,1.6,2.4,1.6l0,0c0.1,0,0.2,0,0.2,0l0,0c1.2-0.1,2.1-1.1,2-2.1l0,0C120-514.3,119.6-514.5,119.1-514.5L119.1-514.5
				C119.1-514.5,119.1-514.5,119.1-514.5L119.1-514.5z"/>
		</g>
	</mask>
	<polygon id="Fill-20_00000177452161663791027900000015560879000270240640_" class="st21" points="113.7,-510.2 121.8,-510.2 
		121.8,-516.1 113.7,-516.1 	"/>
</g>
<path id="Fill-23_00000174590303694159037610000001064555798759544505_" class="st0" d="M146.1-501.3c-0.1-0.4-0.6-0.5-0.9-0.3
	c-2.1,1.1-3.9,1.8-6.3,2c-0.8,0.1-0.7,1.3,0.1,1.2c2.3-0.3,4.1-0.9,6.1-1.8c0.1,0.7-0.1,1.4-0.8,1.8c-0.2,0.1-0.5,0.2-0.7,0.3
	c-0.4,0.1-1.6,0.1-1.4,0.7c0.2,0.7,0.3,1.5,0.1,2.2c-0.1,0.8-0.5,1.2-1.2,0.8c-0.3-0.1-0.6-0.3-0.9-0.5c-0.4-0.3-0.9,0.2-0.9,0.6
	c0,1.4-1.3,2.9-2.8,2c-0.9-0.6-2.1-1.9-1.9-3c0.1-0.8-1.1-1-1.2-0.2c-0.2,1.9,1.5,4.1,3.3,4.6c1.8,0.6,3.3-0.9,3.7-2.5
	c1,0.5,2.1,0.6,2.8-0.6c0.5-0.8,0.5-1.9,0.4-2.9c0.5-0.1,1-0.3,1.3-0.4C146.3-498.1,146.4-499.8,146.1-501.3"/>
<defs>
	
		<filter id="Adobe_OpacityMaskFilter_00000110468530017241481840000003905473211861502346_" filterUnits="userSpaceOnUse" x="101.1" y="-521" width="0" height="1245.5">
		<feColorMatrix  type="matrix" values="1 0 0 0 0  0 1 0 0 0  0 0 1 0 0  0 0 0 1 0"/>
	</filter>
</defs>
<mask maskUnits="userSpaceOnUse" x="101.1" y="-521" width="0" height="1245.5" id="mask-12_00000163752407638472684000000013479894834426732692_">
	<g style="filter:url(#Adobe_OpacityMaskFilter_00000110468530017241481840000003905473211861502346_);">
		<path id="path-11_00000031926060141838573210000011393425308186780590_" class="st2" d="M145.1-501.6c-2.1,1.1-3.9,1.8-6.3,2l0,0
			c-0.8,0.1-0.7,1.3,0.1,1.2l0,0c2.3-0.3,4.1-0.9,6.1-1.8l0,0c0.1,0.7-0.1,1.4-0.8,1.8l0,0c-0.2,0.1-0.5,0.2-0.7,0.3l0,0
			c-0.4,0.1-1.5,0.1-1.4,0.7l0,0c0.2,0.7,0.3,1.5,0.1,2.2l0,0c-0.1,0.7-0.4,1.1-1.2,0.8l0,0c-0.3-0.1-0.6-0.3-0.9-0.5l0,0
			c-0.4-0.3-0.9,0.2-0.9,0.6l0,0c0,1.4-1.3,2.9-2.7,2l0,0c-0.9-0.6-2-1.9-1.9-3l0,0c0.1-0.8-1.1-1-1.2-0.2l0,0
			c-0.2,1.8,1.5,4.1,3.3,4.6l0,0c1.8,0.6,3.3-0.9,3.7-2.5l0,0c1,0.5,2.1,0.6,2.8-0.5l0,0c0.5-0.8,0.5-1.9,0.4-2.9l0,0
			c0.5-0.1,1-0.3,1.3-0.4l0,0c1.5-0.8,1.7-2.5,1.3-4l0,0c-0.1-0.3-0.3-0.4-0.6-0.4l0,0C145.4-501.7,145.2-501.6,145.1-501.6
			L145.1-501.6z"/>
	</g>
</mask>
<line id="Fill-25_00000112633305276973360380000003107485770479295138_" class="st23" x1="101.1" y1="-521" x2="101.1" y2="724.4"/>
<g id="Group-30_00000152980754163863512800000018220237836438294424_" transform="translate(18.000000, 13.000000)">
	<g id="Clip-29_00000090266992929757815330000015242610869606460546_">
	</g>
	<defs>
		
			<filter id="Adobe_OpacityMaskFilter_00000093155542482832891390000009953945874839658132_" filterUnits="userSpaceOnUse" x="113.8" y="-516.2" width="16" height="13.9">
			<feColorMatrix  type="matrix" values="1 0 0 0 0  0 1 0 0 0  0 0 1 0 0  0 0 0 1 0"/>
		</filter>
	</defs>
	
		<mask maskUnits="userSpaceOnUse" x="113.8" y="-516.2" width="16" height="13.9" id="mask-14_00000018923158662701731180000014257710785611088010_">
		<g style="filter:url(#Adobe_OpacityMaskFilter_00000093155542482832891390000009953945874839658132_);">
			<path id="path-13_00000073723018443702011080000018397526043273303951_" class="st2" d="M127.1-514.6c-2.1,1.1-3.9,1.8-6.3,2l0,0
				c-0.8,0.1-0.7,1.3,0.1,1.2l0,0c2.3-0.3,4.1-0.9,6.1-1.8l0,0c0.1,0.7-0.1,1.4-0.8,1.8l0,0c-0.2,0.1-0.5,0.2-0.7,0.3l0,0
				c-0.4,0.1-1.5,0.1-1.4,0.7l0,0c0.2,0.7,0.3,1.5,0.1,2.2l0,0c-0.1,0.7-0.4,1.1-1.2,0.8l0,0c-0.3-0.1-0.6-0.3-0.9-0.5l0,0
				c-0.4-0.3-0.9,0.2-0.9,0.6l0,0c0,1.4-1.3,2.9-2.7,2l0,0c-0.9-0.6-2-1.9-1.9-3l0,0c0.1-0.8-1.1-1-1.2-0.2l0,0
				c-0.2,1.8,1.5,4.1,3.3,4.6l0,0c1.8,0.6,3.3-0.9,3.7-2.5l0,0c1,0.5,2.1,0.6,2.8-0.5l0,0c0.5-0.8,0.5-1.9,0.4-2.9l0,0
				c0.5-0.1,1-0.3,1.3-0.4l0,0c1.5-0.8,1.7-2.5,1.3-4l0,0c-0.1-0.3-0.3-0.4-0.6-0.4l0,0C127.4-514.7,127.2-514.6,127.1-514.6
				L127.1-514.6z"/>
		</g>
	</mask>
	<polygon id="Fill-28_00000011721681158870942760000004987532675119650747_" class="st25" points="113.8,-502.3 129.8,-502.3 
		129.8,-516.2 113.8,-516.2 	"/>
</g>
<path id="Fill-31_00000089572298915004599760000002132947262007963830_" class="st0" d="M154.5-502.3c0.3,0.4,0.2,0.6,0.2,0.9
	c-0.5-0.1-1.1-0.4-1.1-0.9C153.5-502.8,154-502.9,154.5-502.3 M148.2-492.1c0,0.1,0,0.1-0.1,0.2c0,0.1-0.1,0.3-0.2,0.4
	c0,0.1,0,0.1-0.1,0.2c-0.1,0.2-0.1,0.3-0.2,0.5c0,0,0,0,0,0.1c-0.1,0.2-0.2,0.4-0.3,0.5c0,0-0.1,0.1-0.1,0.1
	c-0.1,0.1-0.1,0.3-0.2,0.4c0,0.1-0.1,0.1-0.1,0.2c-0.1,0.1-0.2,0.3-0.3,0.4c0,0,0,0.1-0.1,0.1c-0.1,0.2-0.2,0.3-0.3,0.5
	c0,0-0.1,0.1-0.1,0.1c-0.1,0.1-0.2,0.2-0.3,0.3c0,0-0.1,0.1-0.1,0.1c-0.1,0.1-0.2,0.2-0.3,0.3c0,0-0.1,0.1-0.1,0.1
	c-0.1,0.1-0.3,0.3-0.4,0.4c0,0-0.1,0.1-0.1,0.1c-0.1,0.1-0.2,0.2-0.3,0.3c0,0-0.1,0.1-0.1,0.1c-0.1,0.1-0.2,0.2-0.4,0.3
	c0,0,0,0-0.1,0.1l-0.1,0.1c-0.1,0.2-0.2,0.4,0.1,0.8c0.1,0.1,0.2,0.3,0.3,0.4c0.8,1,1.3,1.5,2.5,1.8c0,0-0.6,0-0.9,0.6
	c-0.3,0.5-0.3,0.9-0.3,0.9c-1.5-0.4-2.4-1.1-3.7-2.2c-0.4-0.3-0.7-0.6-1-1c-0.7-0.7-1.2-1.6-1.5-2.4c-0.3-0.7-1.5-0.4-1.2,0.3
	c0.3,0.8,0.7,1.6,1.3,2.4c-2.3,0.3-4.6,0-6.8-0.5c0.1-0.6,0.2-1.1,0.2-1.7c0.1-0.8-1.2-0.8-1.3,0c0,0.5-0.1,1-0.2,1.4
	c-0.1,0.4-0.2,0.8-0.3,1.2c-0.4,1.4-0.7,2.3-1.2,3.7c-0.4-0.3-1.8-0.7-2.2-0.5l1.1-3.9c0.1-0.4,0.2-0.8,0.2-1.2
	c0.1-0.5,0.2-0.9,0.2-1.4c0.1-0.8-1.2-0.8-1.3,0c0,0.3-0.1,0.6-0.1,1c-0.9-0.4-1.9-0.9-2.7-1.4c-2.6-1.7-4-4.2-4.6-7.2
	c0.8,0.5,1.6,0.9,2.4,1.1c2.6,0.8,5.9-0.3,7.9-2c0.6-0.5-0.3-1.4-0.9-0.9c-1.6,1.4-4.2,2.3-6.2,1.8c-2.2-0.5-4.8-2.3-5.1-4.6
	c3.7,1,8.7-0.7,6.9-5.1c0,0-0.4-0.7-0.2-0.5c0,0,0.1-0.1,0.1-0.1c0.7-0.8,1.7-1.4,2.7-1.9c0.1-0.1,0.3-0.1,0.4-0.2
	c0.9-0.4,1.8-0.6,2.7-0.8c-0.1,0.3-0.2,0.6-0.2,0.9c-0.1,0.8,1.2,0.8,1.3,0c0-0.3,0.2-0.7,0.5-1.1c0.3-0.5,0.6-1,0.9-1.3
	c0,0,0,0,0,0c1.1-1.4,2.8-3.5,3.7-3.2c1.1,0.4,1.1,2.2,1.2,3.6c0,0.4,0.1,0.9,0.1,1.3c0,1.3,0.1,1.6-0.3,2.9c-0.2,0.8,1,1.1,1.2,0.3
	c0.3-1.1,0.3-1.5,0.3-2.9c1.1,0.3,2.2,0.8,3.2,1.3c2.5,1.4,4.5,3.4,5.3,6.1c0.7,2.5,0.7,5.2-0.1,7.7
	C148.3-492.5,148.3-492.3,148.2-492.1 M122.8-483.6c0.8-1.3,1.2-2.2,1.6-3.6c0.5,0.3,1,0.7,1.6,1c-0.4,1.2-0.7,2.3-1.4,3.4
	C124.3-483.6,123.8-483.8,122.8-483.6 M124.5-504.4c2.3,5.9-11.3,4.2-7.4-1.3C118.8-508.2,123.4-506.6,124.5-504.4 M124.7-511.6
	c0.4,0.3,0.8,0.8,1.1,1.1c0.6,0.7,1.3,1.4,1.7,2.3c-1,0.5-2.7,2-2.7,2c-0.5-0.5-1.1-0.9-1.8-1.2c0.1-1,0.6-1.9,1-2.8
	C124.1-510.6,124.4-511.2,124.7-511.6 M157.7-505.1c0.5,1.1,0.5,2.3-0.5,3.1c-0.3,0.2-0.8,0.5-1.3,0.6c0-0.6-0.2-1.2-0.6-1.7
	c-0.6-0.6-1.8-1.1-2.5-0.5c-0.8,0.5-0.5,1.6,0,2.3c0.4,0.5,1,0.9,1.6,1.1c-0.2,0.2-0.4,0.5-0.6,0.7c-1,0.9-2.5,0.9-3.7,0.4
	c-0.6-3-2.2-5.7-4.9-7.6c-1.5-1.1-3.3-1.9-5.1-2.4c-0.1-1.9-0.1-3.3-1.2-5.1c-0.4-0.7-1.7-0.6-2.1-0.3c-1.9,1.2-2.6,2.1-3.9,3.9
	c-0.2,0.3-0.4,0.5-0.6,0.8c-1.2,0.2-2.5,0.5-3.6,0.9c-0.6-1.1-1.4-2.1-2.3-3c-0.5-0.4-1.4-1.5-2.1-1.1c-0.6,0.4-1,1.6-1.3,2.2
	c-0.4,0.9-0.9,1.9-1.1,2.8c-2.8-0.7-6.1,0.2-6.5,3.5c-0.2,2,0.8,3.3,2.3,4.1c-0.1,1.6,0.7,2.9,1.7,3.9c0.4,3.2,1.5,6.2,4,8.3
	c-0.4,1.8-1.6,3.6-2.6,5.2c-0.3,0.4,0.1,0.9,0.5,0.9c1.1,0.1,2.2,0.3,3.4,0.4c0.2,0,0.4-0.1,0.5-0.3c0.8-1.2,1.5-2.5,1.9-3.9
	c0.2,0.1,0.4,0.2,0.6,0.3c-0.4,1.8-0.9,3.5-1.5,5.2c-0.1,0.3,0.1,0.7,0.4,0.8c1.1,0.2,2.2,0.4,3.4,0.7c0.4,0.1,0.6-0.1,0.8-0.4
	c0.6-1.5,1.2-3.2,1.7-4.8c2.7,0.6,5.4,0.9,8.1,0.4c1.7,1.6,3.9,2.8,5.9,3.3c0.3,0.1,0.6,0,0.7-0.3c0.6-0.9,1.2-1.8,1.8-2.7
	c0.3-0.4-0.1-0.9-0.5-0.9c-1.3-0.1-2.4-0.6-3.2-1.6c1.9-1.5,3.3-3.7,4.1-6.1c0.6-1.9,0.9-4,0.7-6c2.1,0.6,4.5-0.1,5.4-2.2
	c0,0,0.1,0,0.1,0c2.8-0.2,4.2-2.9,3.1-5.3C158.6-506.1,157.4-505.8,157.7-505.1"/>
<path id="Fill-1_00000118365222038621158830000009841180651804458886_" class="st0" d="M4.7,11c-0.3,0-0.5-0.3-0.5-0.5
	c0-0.1,0-0.2,0.1-0.3C4.5,10,4.6,10,4.7,10C4.9,10,5,10,5.1,10.2c0.1,0.1,0.1,0.2,0.1,0.3C5.2,10.7,5.1,11,4.7,11"/>
<defs>
	
		<filter id="Adobe_OpacityMaskFilter_00000147940082644870108170000002533294908935203723_" filterUnits="userSpaceOnUse" x="-6.9" y="0" width="0" height="792.6">
		<feColorMatrix  type="matrix" values="1 0 0 0 0  0 1 0 0 0  0 0 1 0 0  0 0 0 1 0"/>
	</filter>
</defs>
<mask maskUnits="userSpaceOnUse" x="-6.9" y="0" width="0" height="792.6" id="mask-2_00000063632316577350286560000003794926474596248723_">
	<g style="filter:url(#Adobe_OpacityMaskFilter_00000147940082644870108170000002533294908935203723_);">
		<path id="path-1_00000073714177507776682730000000465722682819350701_" class="st2" d="M4.4,10.2c-0.1,0.1-0.1,0.2-0.1,0.3l0,0
			c0,0.2,0.2,0.5,0.5,0.5l0,0c0.3,0,0.5-0.2,0.5-0.5l0,0c0-0.1,0-0.2-0.1-0.3l0,0C5,10.1,4.9,10,4.7,10l0,0
			C4.6,10,4.5,10.1,4.4,10.2L4.4,10.2z"/>
	</g>
</mask>
<line id="Fill-3_00000115510222673877117790000012617681935589075849_" class="st27" x1="-6.9" y1="0" x2="-6.9" y2="792.6"/>
<defs>
	
		<filter id="Adobe_OpacityMaskFilter_00000100375056716678799940000016319357389261998265_" filterUnits="userSpaceOnUse" x="3.3" y="9" width="2.9" height="2.9">
		<feColorMatrix  type="matrix" values="1 0 0 0 0  0 1 0 0 0  0 0 1 0 0  0 0 0 1 0"/>
	</filter>
</defs>
<mask maskUnits="userSpaceOnUse" x="3.3" y="9" width="2.9" height="2.9" id="mask-2_00000026869285570621152310000001864919007352617369_">
	<g style="filter:url(#Adobe_OpacityMaskFilter_00000100375056716678799940000016319357389261998265_);">
		<path id="path-1_00000023260358343341059740000018370590634013515930_" class="st2" d="M4.4,10.2c-0.1,0.1-0.1,0.2-0.1,0.3l0,0
			c0,0.2,0.2,0.5,0.5,0.5l0,0c0.3,0,0.5-0.2,0.5-0.5l0,0c0-0.1,0-0.2-0.1-0.3l0,0C5,10.1,4.9,10,4.7,10l0,0
			C4.6,10,4.5,10.1,4.4,10.2L4.4,10.2z"/>
	</g>
</mask>
<polygon id="Fill-5_00000022530860745006198410000013354908650471154596_" class="st29" points="3.3,11.9 6.2,11.9 6.2,9 3.3,9 "/>
<path id="Fill-7_00000049907451671430985410000003358215408776869790_" class="st0" d="M6.7,13c0,0-0.1,0-0.1,0
	c-0.3-0.2-0.4-0.7-0.3-1.2c0.1-0.5,0.3-0.9,0.6-0.7c0.3,0.2,0.4,0.7,0.3,1.2C7.1,12.6,6.9,13,6.7,13"/>
<defs>
	
		<filter id="Adobe_OpacityMaskFilter_00000023994840744395356370000006672448947613633692_" filterUnits="userSpaceOnUse" x="-15.5" y="-5" width="344.8" height="0">
		<feColorMatrix  type="matrix" values="1 0 0 0 0  0 1 0 0 0  0 0 1 0 0  0 0 0 1 0"/>
	</filter>
</defs>
<mask maskUnits="userSpaceOnUse" x="-15.5" y="-5" width="344.8" height="0" id="mask-4_00000178898831482641473750000013313571405559590025_">
	<g style="filter:url(#Adobe_OpacityMaskFilter_00000023994840744395356370000006672448947613633692_);">
		<path id="path-3_00000086693534687379491930000000035521823136438688_" class="st2" d="M6.4,11.9c-0.1,0.4,0,0.9,0.5,1.1l0,0
			c0.1,0,0.1,0,0.2,0l0,0c0.4,0,0.7-0.3,0.9-0.7l0,0c0.1-0.4,0-0.9-0.5-1.1l0,0c-0.1,0-0.1,0-0.2,0l0,0C6.9,11.2,6.5,11.5,6.4,11.9
			L6.4,11.9z"/>
	</g>
</mask>
<line id="Fill-9_00000015315271429408555150000017573349115161964731_" class="st31" x1="329.3" y1="-5" x2="-15.5" y2="-5"/>
<g id="Group-14_00000084495628004727850160000003187495589262128792_" transform="translate(5.000000, 10.000000)">
	<g id="Clip-13_00000018928010816402283200000006091404674243113355_">
	</g>
	<defs>
		
			<filter id="Adobe_OpacityMaskFilter_00000130632724520938818210000007346742407606987152_" filterUnits="userSpaceOnUse" x="-0.3" y="-0.3" width="5.1" height="4.8">
			<feColorMatrix  type="matrix" values="1 0 0 0 0  0 1 0 0 0  0 0 1 0 0  0 0 0 1 0"/>
		</filter>
	</defs>
	
		<mask maskUnits="userSpaceOnUse" x="-0.3" y="-0.3" width="5.1" height="4.8" id="mask-6_00000031914026751662654790000009137255094446891665_">
		<g style="filter:url(#Adobe_OpacityMaskFilter_00000130632724520938818210000007346742407606987152_);">
			<path id="path-5_00000173865698048493272670000006848944876645672846_" class="st2" d="M1.4,1.9c-0.1,0.4,0,0.9,0.5,1.1l0,0
				C2,3,2.1,3,2.2,3l0,0C2.6,3,2.9,2.6,3,2.3l0,0c0.1-0.4,0-0.9-0.5-1.1l0,0c-0.1,0-0.1,0-0.2,0l0,0C1.9,1.2,1.5,1.5,1.4,1.9
				L1.4,1.9z"/>
		</g>
	</mask>
	<polygon id="Fill-12_00000096055256585539951200000011670464648015710609_" class="st33" points="-0.3,4.5 4.7,4.5 4.7,-0.3 
		-0.3,-0.3 	"/>
</g>
<path id="Fill-15_00000157999348592113618110000017798049098862829706_" class="st0" d="M17.3,15c-0.9,0-1.7-0.7-2-1.7
	c-0.1-0.5,0.1-0.8,0.4-0.9c0.3-0.1,0.8,0,0.9,0.5c0.1,0.4,0.5,0.6,0.8,0.5c0.2-0.1,0.4-0.3,0.3-0.6c0-0.5,0.3-0.7,0.6-0.8
	c0.4,0,0.8,0.2,0.8,0.7c0.1,1.1-0.7,2.1-1.7,2.2C17.4,15,17.4,15,17.3,15"/>
<defs>
	
		<filter id="Adobe_OpacityMaskFilter_00000126284390466052468580000013264771100269871261_" filterUnits="userSpaceOnUse" x="-16.3" y="-5.5" width="344.8" height="0">
		<feColorMatrix  type="matrix" values="1 0 0 0 0  0 1 0 0 0  0 0 1 0 0  0 0 0 1 0"/>
	</filter>
</defs>
<mask maskUnits="userSpaceOnUse" x="-16.3" y="-5.5" width="344.8" height="0" id="mask-8_00000127733696916519049940000013761485419552042925_">
	<g style="filter:url(#Adobe_OpacityMaskFilter_00000126284390466052468580000013264771100269871261_);">
		<path id="path-7_00000026124300314174968230000005571922960134978704_" class="st2" d="M18.1,12.2c-0.4,0-0.7,0.3-0.7,0.7l0,0
			c0,0.3-0.1,0.5-0.4,0.6l0,0c-0.3,0.1-0.8-0.1-0.9-0.5l0,0c-0.2-0.5-0.7-0.6-1.1-0.5l0,0c-0.4,0.1-0.7,0.4-0.5,0.9l0,0
			c0.4,1,1.3,1.6,2.4,1.6l0,0c0.1,0,0.2,0,0.2,0l0,0c1.2-0.1,2.1-1.1,2-2.1l0,0C19,12.4,18.6,12.2,18.1,12.2L18.1,12.2
			C18.1,12.2,18.1,12.2,18.1,12.2L18.1,12.2z"/>
	</g>
</mask>
<line id="Fill-17_00000089541399537056200580000011688189361250900638_" class="st35" x1="328.5" y1="-5.5" x2="-16.3" y2="-5.5"/>
<g id="Group-22_00000060720143035098767280000015807267216754525111_" transform="translate(13.000000, 11.000000)">
	<g id="Clip-21_00000093898724045801699120000017257052764667004057_">
	</g>
	<defs>
		
			<filter id="Adobe_OpacityMaskFilter_00000121277271992929404160000017223207303278888834_" filterUnits="userSpaceOnUse" x="-0.3" y="-0.4" width="8.1" height="5.9">
			<feColorMatrix  type="matrix" values="1 0 0 0 0  0 1 0 0 0  0 0 1 0 0  0 0 0 1 0"/>
		</filter>
	</defs>
	
		<mask maskUnits="userSpaceOnUse" x="-0.3" y="-0.4" width="8.1" height="5.9" id="mask-10_00000162315103143104496310000010843440350599212676_">
		<g style="filter:url(#Adobe_OpacityMaskFilter_00000121277271992929404160000017223207303278888834_);">
			<path id="path-9_00000007426739862161904850000009645574183162284954_" class="st2" d="M5.1,1.2c-0.4,0-0.7,0.3-0.7,0.7l0,0
				c0,0.3-0.1,0.5-0.4,0.6l0,0C3.7,2.5,3.2,2.4,3.1,2l0,0C2.9,1.5,2.3,1.4,1.9,1.5l0,0C1.6,1.6,1.3,1.9,1.4,2.4l0,0
				C1.8,3.3,2.8,4,3.8,4l0,0C3.9,4,4,4,4.1,4l0,0c1.2-0.1,2.1-1.1,2-2.1l0,0C6,1.4,5.6,1.2,5.1,1.2L5.1,1.2C5.1,1.2,5.1,1.2,5.1,1.2
				L5.1,1.2z"/>
		</g>
	</mask>
	<polygon id="Fill-20_00000128474327394512267100000009724303877228737684_" class="st37" points="-0.3,5.5 7.8,5.5 7.8,-0.4 
		-0.3,-0.4 	"/>
</g>
<path id="Fill-23_00000018934456653467714920000017203252217592472466_" class="st0" d="M32,14.4c-0.1-0.4-0.6-0.5-0.9-0.3
	c-2.1,1.1-3.9,1.8-6.3,2c-0.8,0.1-0.7,1.3,0.1,1.2c2.3-0.3,4.1-0.9,6.1-1.8c0.1,0.7-0.1,1.4-0.8,1.8c-0.2,0.1-0.5,0.2-0.7,0.3
	c-0.4,0.1-1.6,0.1-1.4,0.7c0.2,0.7,0.3,1.5,0.1,2.2c-0.1,0.8-0.5,1.2-1.2,0.8c-0.3-0.1-0.6-0.3-0.9-0.5c-0.4-0.3-0.9,0.2-0.9,0.6
	c0,1.4-1.3,2.9-2.8,2c-0.9-0.6-2.1-1.9-1.9-3c0.1-0.8-1.1-1-1.2-0.2c-0.2,1.9,1.5,4.1,3.3,4.6c1.8,0.6,3.3-0.9,3.7-2.5
	c1,0.5,2.1,0.6,2.8-0.6c0.5-0.8,0.5-1.9,0.4-2.9c0.5-0.1,1-0.3,1.3-0.4C32.3,17.6,32.4,15.9,32,14.4"/>
<defs>
	
		<filter id="Adobe_OpacityMaskFilter_00000002346792777077543590000002182279252241254043_" filterUnits="userSpaceOnUse" x="-12.9" y="-5.3" width="314.6" height="0">
		<feColorMatrix  type="matrix" values="1 0 0 0 0  0 1 0 0 0  0 0 1 0 0  0 0 0 1 0"/>
	</filter>
</defs>
<mask maskUnits="userSpaceOnUse" x="-12.9" y="-5.3" width="314.6" height="0" id="mask-12_00000108286430992713335600000000769693794072542885_">
	<g style="filter:url(#Adobe_OpacityMaskFilter_00000002346792777077543590000002182279252241254043_);">
		<path id="path-11_00000129197101527190899670000007756097679882627508_" class="st2" d="M31.1,14.1c-2.1,1.1-3.9,1.8-6.3,2l0,0
			c-0.8,0.1-0.7,1.3,0.1,1.2l0,0c2.3-0.3,4.1-0.9,6.1-1.8l0,0c0.1,0.7-0.1,1.4-0.8,1.8l0,0c-0.2,0.1-0.5,0.2-0.7,0.3l0,0
			c-0.4,0.1-1.5,0.1-1.4,0.7l0,0c0.2,0.7,0.3,1.5,0.1,2.2l0,0c-0.1,0.7-0.4,1.1-1.2,0.8l0,0c-0.3-0.1-0.6-0.3-0.9-0.5l0,0
			c-0.4-0.3-0.9,0.2-0.9,0.6l0,0c0,1.4-1.3,2.9-2.7,2l0,0c-0.9-0.6-2-1.9-1.9-3l0,0c0.1-0.8-1.1-1-1.2-0.2l0,0
			c-0.2,1.8,1.5,4.1,3.3,4.6l0,0c1.8,0.6,3.3-0.9,3.7-2.5l0,0c1,0.5,2.1,0.6,2.8-0.5l0,0c0.5-0.8,0.5-1.9,0.4-2.9l0,0
			c0.5-0.1,1-0.3,1.3-0.4l0,0c1.5-0.8,1.7-2.5,1.3-4l0,0c-0.1-0.3-0.3-0.4-0.6-0.4l0,0C31.4,14.1,31.2,14.1,31.1,14.1L31.1,14.1z"/>
	</g>
</mask>
<line id="Fill-25_00000013172496563882224700000006210904200225428877_" class="st39" x1="301.6" y1="-5.3" x2="-12.9" y2="-5.3"/>
<g id="Group-30_00000119820588726534420420000001228809011853048714_" transform="translate(18.000000, 13.000000)">
	<g id="Clip-29_00000100352630056803159130000006559782064069994411_">
	</g>
	<defs>
		
			<filter id="Adobe_OpacityMaskFilter_00000093162379997855785500000017136521554647548589_" filterUnits="userSpaceOnUse" x="-0.2" y="-0.5" width="16" height="13.9">
			<feColorMatrix  type="matrix" values="1 0 0 0 0  0 1 0 0 0  0 0 1 0 0  0 0 0 1 0"/>
		</filter>
	</defs>
	
		<mask maskUnits="userSpaceOnUse" x="-0.2" y="-0.5" width="16" height="13.9" id="mask-14_00000065038462724604740940000012180886067733822345_">
		<g style="filter:url(#Adobe_OpacityMaskFilter_00000093162379997855785500000017136521554647548589_);">
			<path id="path-13_00000179647226381986115740000003573378545608550071_" class="st2" d="M13.1,1.1c-2.1,1.1-3.9,1.8-6.3,2l0,0
				C6.1,3.2,6.2,4.5,6.9,4.4l0,0C9.2,4.1,11,3.5,13,2.5l0,0c0.1,0.7-0.1,1.4-0.8,1.8l0,0c-0.2,0.1-0.5,0.2-0.7,0.3l0,0
				c-0.4,0.1-1.5,0.1-1.4,0.7l0,0c0.2,0.7,0.3,1.5,0.1,2.2l0,0C10.1,8.3,9.8,8.7,9,8.3l0,0C8.7,8.2,8.4,8,8.1,7.8l0,0
				C7.7,7.6,7.2,8,7.2,8.4l0,0c0,1.4-1.3,2.9-2.7,2l0,0c-0.9-0.6-2-1.9-1.9-3l0,0c0.1-0.8-1.1-1-1.2-0.2l0,0
				C1.1,9,2.9,11.3,4.6,11.8l0,0c1.8,0.6,3.3-0.9,3.7-2.5l0,0c1,0.5,2.1,0.6,2.8-0.5l0,0c0.5-0.8,0.5-1.9,0.4-2.9l0,0
				c0.5-0.1,1-0.3,1.3-0.4l0,0c1.5-0.8,1.7-2.5,1.3-4l0,0c-0.1-0.3-0.3-0.4-0.6-0.4l0,0C13.4,1.1,13.2,1.1,13.1,1.1L13.1,1.1z"/>
		</g>
	</mask>
	<polygon id="Fill-28_00000170248417867126200320000012521054978948335281_" class="st41" points="-0.2,13.4 15.8,13.4 15.8,-0.5 
		-0.2,-0.5 	"/>
</g>
<path id="Fill-31_00000068666234514038473840000017253289732637785760_" class="st0" d="M40.5,13.5c0.3,0.4,0.2,0.6,0.2,0.9
	c-0.5-0.1-1.1-0.4-1.1-0.9C39.4,12.9,40,12.8,40.5,13.5 M34.2,23.6c0,0.1,0,0.1-0.1,0.2c0,0.1-0.1,0.3-0.2,0.4c0,0.1,0,0.1-0.1,0.2
	c-0.1,0.2-0.1,0.3-0.2,0.5c0,0,0,0,0,0.1c-0.1,0.2-0.2,0.4-0.3,0.5c0,0-0.1,0.1-0.1,0.1c-0.1,0.1-0.1,0.3-0.2,0.4
	c0,0.1-0.1,0.1-0.1,0.2c-0.1,0.1-0.2,0.3-0.3,0.4c0,0,0,0.1-0.1,0.1c-0.1,0.2-0.2,0.3-0.3,0.5c0,0-0.1,0.1-0.1,0.1
	c-0.1,0.1-0.2,0.2-0.3,0.3c0,0-0.1,0.1-0.1,0.1c-0.1,0.1-0.2,0.2-0.3,0.3c0,0-0.1,0.1-0.1,0.1c-0.1,0.1-0.3,0.3-0.4,0.4
	c0,0-0.1,0.1-0.1,0.1c-0.1,0.1-0.2,0.2-0.3,0.3c0,0-0.1,0.1-0.1,0.1c-0.1,0.1-0.2,0.2-0.4,0.3c0,0,0,0-0.1,0.1L30,29.4
	c-0.1,0.2-0.2,0.4,0.1,0.8c0.1,0.1,0.2,0.3,0.3,0.4c0.8,1,1.3,1.5,2.5,1.8c0,0-0.6,0-0.9,0.6c-0.3,0.5-0.3,0.9-0.3,0.9
	c-1.5-0.4-2.4-1.1-3.7-2.2c-0.4-0.3-0.7-0.6-1-1c-0.7-0.7-1.2-1.6-1.5-2.4c-0.3-0.7-1.5-0.4-1.2,0.3c0.3,0.8,0.7,1.6,1.3,2.4
	c-2.3,0.3-4.6,0-6.8-0.5c0.1-0.6,0.2-1.1,0.2-1.7c0.1-0.8-1.2-0.8-1.3,0c0,0.5-0.1,1-0.2,1.4c-0.1,0.4-0.2,0.8-0.3,1.2
	c-0.4,1.4-0.7,2.3-1.2,3.7c-0.4-0.3-1.8-0.7-2.2-0.5l1.1-3.9c0.1-0.4,0.2-0.8,0.2-1.2c0.1-0.5,0.2-0.9,0.2-1.4
	c0.1-0.8-1.2-0.8-1.3,0c0,0.3-0.1,0.6-0.1,1c-0.9-0.4-1.9-0.9-2.7-1.4c-2.6-1.7-4-4.2-4.6-7.2c0.8,0.5,1.6,0.9,2.4,1.1
	c2.6,0.8,5.9-0.3,7.9-2c0.6-0.5-0.3-1.4-0.9-0.9c-1.6,1.4-4.2,2.3-6.2,1.8C7.7,20,5,18.3,4.8,15.9c3.7,1,8.7-0.7,6.9-5.1
	c0,0-0.4-0.7-0.2-0.5c0,0,0.1-0.1,0.1-0.1c0.7-0.8,1.7-1.4,2.7-1.9c0.1-0.1,0.3-0.1,0.4-0.2c0.9-0.4,1.8-0.6,2.7-0.8
	c-0.1,0.3-0.2,0.6-0.2,0.9c-0.1,0.8,1.2,0.8,1.3,0c0-0.3,0.2-0.7,0.5-1.1c0.3-0.5,0.6-1,0.9-1.3c0,0,0,0,0,0
	c1.1-1.4,2.8-3.5,3.7-3.2c1.1,0.4,1.1,2.2,1.2,3.6c0,0.4,0.1,0.9,0.1,1.3c0,1.3,0.1,1.6-0.3,2.9c-0.2,0.8,1,1.1,1.2,0.3
	C26,9.6,26,9.2,26,7.8c1.1,0.3,2.2,0.8,3.2,1.3c2.5,1.4,4.5,3.4,5.3,6.1c0.7,2.5,0.7,5.2-0.1,7.7C34.3,23.2,34.3,23.4,34.2,23.6
	 M8.8,32.2c0.8-1.3,1.2-2.2,1.6-3.6c0.5,0.3,1,0.7,1.6,1c-0.4,1.2-0.7,2.3-1.4,3.4C10.3,32.2,9.8,31.9,8.8,32.2 M10.5,11.3
	c2.3,5.9-11.3,4.2-7.4-1.3C4.8,7.5,9.4,9.1,10.5,11.3 M10.7,4.1c0.4,0.3,0.8,0.8,1.1,1.1c0.6,0.7,1.3,1.4,1.7,2.3
	c-1,0.5-2.7,2-2.7,2c-0.5-0.5-1.1-0.9-1.8-1.2c0.1-1,0.6-1.9,1-2.8C10.1,5.1,10.4,4.5,10.7,4.1 M43.7,10.6c0.5,1.1,0.5,2.3-0.5,3.1
	c-0.3,0.2-0.8,0.5-1.3,0.6c0-0.6-0.2-1.2-0.6-1.7c-0.6-0.6-1.8-1.1-2.5-0.5c-0.8,0.5-0.5,1.6,0,2.3c0.4,0.5,1,0.9,1.6,1.1
	c-0.2,0.2-0.4,0.5-0.6,0.7c-1,0.9-2.5,0.9-3.7,0.4c-0.6-3-2.2-5.7-4.9-7.6c-1.5-1.1-3.3-1.9-5.1-2.4c-0.1-1.9-0.1-3.3-1.2-5.1
	c-0.4-0.7-1.7-0.6-2.1-0.3c-1.9,1.2-2.6,2.1-3.9,3.9c-0.2,0.3-0.4,0.5-0.6,0.8c-1.2,0.2-2.5,0.5-3.6,0.9c-0.6-1.1-1.4-2.1-2.3-3
	c-0.5-0.4-1.4-1.5-2.1-1.1C9.5,3.2,9.1,4.4,8.8,5C8.4,5.9,7.9,6.8,7.7,7.8C4.9,7.1,1.7,8,1.3,11.3c-0.2,2,0.8,3.3,2.3,4.1
	c-0.1,1.6,0.7,2.9,1.7,3.9c0.4,3.2,1.5,6.2,4,8.3c-0.4,1.8-1.6,3.6-2.6,5.2c-0.3,0.4,0.1,0.9,0.5,0.9c1.1,0.1,2.2,0.3,3.4,0.4
	c0.2,0,0.4-0.1,0.5-0.3c0.8-1.2,1.5-2.5,1.9-3.9c0.2,0.1,0.4,0.2,0.6,0.3c-0.4,1.8-0.9,3.5-1.5,5.2c-0.1,0.3,0.1,0.7,0.4,0.8
	c1.1,0.2,2.2,0.4,3.4,0.7c0.4,0.1,0.6-0.1,0.8-0.4c0.6-1.5,1.2-3.2,1.7-4.8c2.7,0.6,5.4,0.9,8.1,0.4c1.7,1.6,3.9,2.8,5.9,3.3
	c0.3,0.1,0.6,0,0.7-0.3c0.6-0.9,1.2-1.8,1.8-2.7c0.3-0.4-0.1-0.9-0.5-0.9c-1.3-0.1-2.4-0.6-3.2-1.6c1.9-1.5,3.3-3.7,4.1-6.1
	c0.6-1.9,0.9-4,0.7-6c2.1,0.6,4.5-0.1,5.4-2.2c0,0,0.1,0,0.1,0c2.8-0.2,4.2-2.9,3.1-5.3C44.6,9.6,43.4,9.9,43.7,10.6"/>
<defs>
	
		<filter id="Adobe_OpacityMaskFilter_00000161591584738367123180000016284129375032866698_" filterUnits="userSpaceOnUse" x="21.1" y="-585.7" width="0" height="792.6">
		<feColorMatrix  type="matrix" values="1 0 0 0 0  0 1 0 0 0  0 0 1 0 0  0 0 0 1 0"/>
	</filter>
</defs>
<mask maskUnits="userSpaceOnUse" x="21.1" y="-585.7" width="0" height="792.6" id="mask-2_00000167363621098636905880000013864321349321062560_">
	<g style="filter:url(#Adobe_OpacityMaskFilter_00000161591584738367123180000016284129375032866698_);">
		<path id="path-1_00000049189965592279832830000004272464291982246320_" class="st2" d="M32.4-575.6c-0.1,0.1-0.1,0.2-0.1,0.3l0,0
			c0,0.2,0.2,0.5,0.5,0.5l0,0c0.3,0,0.5-0.2,0.5-0.5l0,0c0-0.1,0-0.2-0.1-0.3l0,0c-0.1-0.1-0.2-0.2-0.4-0.2l0,0
			C32.6-575.7,32.4-575.7,32.4-575.6L32.4-575.6z"/>
	</g>
</mask>
<line id="Fill-3_00000057846192865340720170000008679374741341270690_" class="st43" x1="21.1" y1="-585.7" x2="21.1" y2="206.8"/>
<defs>
	
		<filter id="Adobe_OpacityMaskFilter_00000176024838261551924730000011606071316581637566_" filterUnits="userSpaceOnUse" x="15.1" y="-591" width="0" height="1245.5">
		<feColorMatrix  type="matrix" values="1 0 0 0 0  0 1 0 0 0  0 0 1 0 0  0 0 0 1 0"/>
	</filter>
</defs>
<mask maskUnits="userSpaceOnUse" x="15.1" y="-591" width="0" height="1245.5" id="mask-12_00000021814825510793736840000001082953559215182777_">
	<g style="filter:url(#Adobe_OpacityMaskFilter_00000176024838261551924730000011606071316581637566_);">
		<path id="path-11_00000078767905795394060260000002288035787367296390_" class="st2" d="M59.1-571.6c-2.1,1.1-3.9,1.8-6.3,2l0,0
			c-0.8,0.1-0.7,1.3,0.1,1.2l0,0c2.3-0.3,4.1-0.9,6.1-1.8l0,0c0.1,0.7-0.1,1.4-0.8,1.8l0,0c-0.2,0.1-0.5,0.2-0.7,0.3l0,0
			c-0.4,0.1-1.5,0.1-1.4,0.7l0,0c0.2,0.7,0.3,1.5,0.1,2.2l0,0c-0.1,0.7-0.4,1.1-1.2,0.8l0,0c-0.3-0.1-0.6-0.3-0.9-0.5l0,0
			c-0.4-0.3-0.9,0.2-0.9,0.6l0,0c0,1.4-1.3,2.9-2.7,2l0,0c-0.9-0.6-2-1.9-1.9-3l0,0c0.1-0.8-1.1-1-1.2-0.2l0,0
			c-0.2,1.8,1.5,4.1,3.3,4.6l0,0c1.8,0.6,3.3-0.9,3.7-2.5l0,0c1,0.5,2.1,0.6,2.8-0.5l0,0c0.5-0.8,0.5-1.9,0.4-2.9l0,0
			c0.5-0.1,1-0.3,1.3-0.4l0,0c1.5-0.8,1.7-2.5,1.3-4l0,0c-0.1-0.3-0.3-0.4-0.6-0.4l0,0C59.3-571.7,59.2-571.7,59.1-571.6L59.1-571.6
			z"/>
	</g>
</mask>
<line id="Fill-25_00000147208620535955892650000000171189558038311555_" class="st45" x1="15.1" y1="-591" x2="15.1" y2="654.4"/>
<defs>
	
		<filter id="Adobe_OpacityMaskFilter_00000162326437586986826230000012486001813114598838_" filterUnits="userSpaceOnUse" x="21.1" y="-585.7" width="0" height="792.6">
		<feColorMatrix  type="matrix" values="1 0 0 0 0  0 1 0 0 0  0 0 1 0 0  0 0 0 1 0"/>
	</filter>
</defs>
<mask maskUnits="userSpaceOnUse" x="21.1" y="-585.7" width="0" height="792.6" id="mask-2_00000055693249841374667040000015449592535116906653_">
	<g style="filter:url(#Adobe_OpacityMaskFilter_00000162326437586986826230000012486001813114598838_);">
		<path id="path-1_00000094583892687165340230000001260264985495654036_" class="st2" d="M32.4-575.6c-0.1,0.1-0.1,0.2-0.1,0.3l0,0
			c0,0.2,0.2,0.5,0.5,0.5l0,0c0.3,0,0.5-0.2,0.5-0.5l0,0c0-0.1,0-0.2-0.1-0.3l0,0c-0.1-0.1-0.2-0.2-0.4-0.2l0,0
			C32.6-575.7,32.4-575.7,32.4-575.6L32.4-575.6z"/>
	</g>
</mask>
<line id="Fill-3_00000027589898228899136900000012494860581134385797_" class="st47" x1="21.1" y1="-585.7" x2="21.1" y2="206.8"/>
<defs>
	
		<filter id="Adobe_OpacityMaskFilter_00000088846788775889315700000002512313716315222148_" filterUnits="userSpaceOnUse" x="15.1" y="-591" width="0" height="1245.5">
		<feColorMatrix  type="matrix" values="1 0 0 0 0  0 1 0 0 0  0 0 1 0 0  0 0 0 1 0"/>
	</filter>
</defs>
<mask maskUnits="userSpaceOnUse" x="15.1" y="-591" width="0" height="1245.5" id="mask-12_00000065045520647534264280000013358805225889115521_">
	<g style="filter:url(#Adobe_OpacityMaskFilter_00000088846788775889315700000002512313716315222148_);">
		<path id="path-11_00000152949061522373676170000002108345693367102884_" class="st2" d="M59.1-571.6c-2.1,1.1-3.9,1.8-6.3,2l0,0
			c-0.8,0.1-0.7,1.3,0.1,1.2l0,0c2.3-0.3,4.1-0.9,6.1-1.8l0,0c0.1,0.7-0.1,1.4-0.8,1.8l0,0c-0.2,0.1-0.5,0.2-0.7,0.3l0,0
			c-0.4,0.1-1.5,0.1-1.4,0.7l0,0c0.2,0.7,0.3,1.5,0.1,2.2l0,0c-0.1,0.7-0.4,1.1-1.2,0.8l0,0c-0.3-0.1-0.6-0.3-0.9-0.5l0,0
			c-0.4-0.3-0.9,0.2-0.9,0.6l0,0c0,1.4-1.3,2.9-2.7,2l0,0c-0.9-0.6-2-1.9-1.9-3l0,0c0.1-0.8-1.1-1-1.2-0.2l0,0
			c-0.2,1.8,1.5,4.1,3.3,4.6l0,0c1.8,0.6,3.3-0.9,3.7-2.5l0,0c1,0.5,2.1,0.6,2.8-0.5l0,0c0.5-0.8,0.5-1.9,0.4-2.9l0,0
			c0.5-0.1,1-0.3,1.3-0.4l0,0c1.5-0.8,1.7-2.5,1.3-4l0,0c-0.1-0.3-0.3-0.4-0.6-0.4l0,0C59.3-571.7,59.2-571.7,59.1-571.6L59.1-571.6
			z"/>
	</g>
</mask>
<line id="Fill-25_00000180338488894352840120000015136752597404187576_" class="st49" x1="15.1" y1="-591" x2="15.1" y2="654.4"/>
</svg>
